<?xml version="1.0" encoding="utf-8"?>
<!-- Generator: Adobe Illustrator 17.1.0, SVG Export Plug-In . SVG Version: 6.00 Build 0)  -->
<!DOCTYPE svg PUBLIC "-//W3C//DTD SVG 1.1//EN" "http://www.w3.org/Graphics/SVG/1.1/DTD/svg11.dtd">
<svg version="1.1" xmlns="http://www.w3.org/2000/svg" xmlns:xlink="http://www.w3.org/1999/xlink" x="0px" y="0px"
	 viewBox="0 0 736.7 92.6" style="enable-background:new 0 0 736.7 92.6;" xml:space="preserve">
<style type="text/css">
	.st0{fill:#001F5B;enable-background:new    ;}
	.st1{fill:#001F5B;}
	.st2{fill:#EF7622;}
	.st3{fill:#FFFFFF;}
</style>
<g id="Text">
	<g>
		<path d="M120,17.1V45h-7.7V17.1h-10.6V10h29v7.1H120z"/>
		<path d="M136.5,45V10h26.4v6.8h-18.7V24h16.5v6.8h-16.5v7.3h19V45H136.5z"/>
		<path d="M186.3,45.6c-10.3,0-17.9-7.9-17.9-18v-0.1c0-9.9,7.5-18.1,18.2-18.1c6.6,0,10.5,2.2,13.8,5.4l-4.9,5.6
			c-2.7-2.4-5.4-3.9-8.9-3.9c-5.9,0-10.1,4.9-10.1,10.9v0.1c0,6,4.1,11,10.1,11c4,0,6.4-1.6,9.2-4.1l4.9,4.9
			C197,43.2,193.1,45.6,186.3,45.6z"/>
		<path d="M228.7,45V31h-14.2v14h-7.7V10h7.7v13.8h14.2V10h7.7V45H228.7z"/>
		<path d="M269.3,45l-16.9-22.2V45h-7.6V10h7.1l16.4,21.5V10h7.6V45H269.3z"/>
		<path d="M301.2,45.6c-10.8,0-18.5-8-18.5-18v-0.1c0-9.9,7.8-18.1,18.6-18.1s18.5,8,18.5,18v0.1C319.8,37.4,311.9,45.6,301.2,45.6z
			 M311.7,27.5c0-6-4.4-11-10.6-11c-6.2,0-10.5,4.9-10.5,10.9v0.1c0,6,4.4,11,10.6,11s10.5-4.9,10.5-10.9V27.5z"/>
		<path d="M326.6,45V10h7.7v28h17.4v7H326.6z"/>
		<path d="M372.5,45.6c-10.8,0-18.5-8-18.5-18v-0.1c0-9.9,7.8-18.1,18.6-18.1c10.8,0,18.5,8,18.5,18v0.1
			C391.1,37.4,383.3,45.6,372.5,45.6z M383.1,27.5c0-6-4.4-11-10.6-11c-6.2,0-10.5,4.9-10.5,10.9v0.1c0,6,4.4,11,10.6,11
			c6.2,0,10.5-4.9,10.5-10.9V27.5z"/>
		<path d="M414.8,45.6c-10.9,0-18.4-7.6-18.4-18v-0.1c0-9.9,7.7-18.1,18.3-18.1c6.3,0,10.1,1.7,13.7,4.8l-4.8,5.8
			c-2.7-2.2-5.1-3.5-9.1-3.5c-5.6,0-10,4.9-10,10.9v0.1c0,6.4,4.4,11.1,10.6,11.1c2.8,0,5.3-0.7,7.2-2.1v-5h-7.7v-6.6h15.2V40
			C426.1,43.1,421.2,45.6,414.8,45.6z"/>
		<path d="M453.2,31.1V45h-7.7V31.2L432,10h9l8.3,14l8.5-14h8.7L453.2,31.1z"/>
		<path d="M498.8,45.5c-5.3,0-10.6-1.8-14.8-5.6l4.5-5.4c3.1,2.6,6.4,4.2,10.4,4.2c3.1,0,5-1.2,5-3.3v-0.1c0-1.9-1.2-2.9-7-4.4
			c-7-1.8-11.6-3.7-11.6-10.7v-0.1c0-6.3,5.1-10.5,12.2-10.5c5.1,0,9.4,1.6,13,4.4l-4,5.8c-3.1-2.1-6.1-3.4-9.1-3.4s-4.5,1.3-4.5,3
			v0.1c0,2.3,1.5,3,7.5,4.6c7.1,1.8,11.1,4.4,11.1,10.5v0.1C511.6,41.6,506.3,45.5,498.8,45.5z"/>
		<path d="M518.3,45V10h26.4v6.8H526V24h16.5v6.8H526v7.3h19V45H518.3z"/>
		<path d="M573,45l-7.5-11.2h-6V45h-7.7V10h16c8.2,0,13.2,4.3,13.2,11.5v0.1c0,5.6-3,9.2-7.5,10.8L582,45H573z M573.1,22
			c0-3.3-2.3-5-6-5h-7.6v10h7.8C571,27,573.1,25,573.1,22L573.1,22z"/>
		<path d="M604.8,45.2H598L583.9,10h8.5l9.1,24.6l9.1-24.6h8.3L604.8,45.2z"/>
		<path d="M624.7,45V10h7.7V45H624.7z"/>
		<path d="M657.5,45.6c-10.3,0-17.9-7.9-17.9-18v-0.1c0-9.9,7.5-18.1,18.2-18.1c6.6,0,10.5,2.2,13.8,5.4l-4.9,5.6
			c-2.7-2.4-5.4-3.9-8.9-3.9c-5.9,0-10.1,4.9-10.1,10.9v0.1c0,6,4.1,11,10.1,11c4,0,6.4-1.6,9.2-4.1l4.9,4.9
			C668.2,43.2,664.2,45.6,657.5,45.6z"/>
		<path d="M678,45V10h26.4v6.8h-18.7V24h16.5v6.8h-16.5v7.3h19V45H678z"/>
		<path d="M723.8,45.5c-5.3,0-10.6-1.8-14.8-5.6l4.5-5.4c3.1,2.6,6.4,4.2,10.4,4.2c3.1,0,5-1.2,5-3.3v-0.1c0-1.9-1.2-2.9-7-4.4
			c-7-1.8-11.6-3.7-11.6-10.7v-0.1c0-6.3,5.1-10.5,12.2-10.5c5.1,0,9.4,1.6,13,4.4l-4,5.8c-3.1-2.1-6.1-3.4-9.1-3.4s-4.5,1.3-4.5,3
			v0.1c0,2.3,1.5,3,7.5,4.6c7.1,1.8,11.1,4.4,11.1,10.5v0.1C736.7,41.6,731.4,45.5,723.8,45.5z"/>
		<path d="M118.7,74.9h-2.1l-2-4.6H105l-2.1,4.6h-2l8-17.6h1.8L118.7,74.9z M109.8,59.6l-4,8.9h8L109.8,59.6z"/>
		<path d="M126.5,74.9h-2V59.3h-5.9v-1.8h13.7v1.8h-5.9V74.9z"/>
		<path d="M145.7,57.5v17.5h-2V57.5H145.7z"/>
		<path d="M150.8,57.5h2v15.7h9.8v1.8h-11.8V57.5z"/>
		<path d="M166.3,57.5h2v15.7h9.8v1.8h-11.8V57.5z"/>
		<path d="M183.9,57.5v17.5h-2V57.5H183.9z"/>
		<path d="M201.8,57.5h1.9v17.5h-1.6l-11.3-14.3v14.3H189V57.5h1.8l11,14V57.5z"/>
		<path d="M216.8,75.2c-5.3,0-8.9-4.2-8.9-9c0-4.8,3.6-9.1,8.9-9.1c5.3,0,8.9,4.2,8.9,9S222.1,75.2,216.8,75.2z M216.8,59
			c-4,0-6.8,3.2-6.8,7.2c0,4,2.9,7.2,6.9,7.2c4,0,6.8-3.2,6.8-7.2C223.7,62.2,220.8,59,216.8,59z"/>
		<path d="M232.1,57.5v17.5h-2V57.5H232.1z"/>
		<path d="M243.5,65.3c3.9,0.8,5.7,2.3,5.7,5c0,3-2.5,5-6,5c-2.8,0-5-0.9-7.1-2.8l1.2-1.4c1.8,1.6,3.6,2.5,6,2.5
			c2.3,0,3.9-1.2,3.9-3c0-1.6-0.9-2.6-4.5-3.3c-4-0.9-5.9-2.2-5.9-5.1c0-2.8,2.4-4.8,5.7-4.8c2.5,0,4.4,0.7,6.1,2.1l-1.1,1.5
			c-1.6-1.3-3.2-1.9-5-1.9c-2.3,0-3.7,1.2-3.7,2.8C238.7,63.5,239.6,64.4,243.5,65.3z"/>
	</g>
</g>
<g id="Block_I">
	<g>
		<rect x="3.3" y="3.3" class="st0" width="64.7" height="86"/>
		<path class="st1" d="M0,0v92.6h71.3V0H0z M64.7,6.7c0,5.9,0,73.4,0,79.3c-5.7,0-52.4,0-58,0c0-5.9,0-73.4,0-79.3
			C12.3,6.7,59,6.7,64.7,6.7z"/>
	</g>
	<g>
		<rect x="5.2" y="5.5" class="st0" width="60.9" height="81.9"/>
		<path class="st2" d="M4.2,4.5v84h63v-84H4.2z M65.1,6.5c0,2,0,77.9,0,79.9c-2,0-56.9,0-58.9,0c0-2,0-77.9,0-79.9
			C8.2,6.5,63.2,6.5,65.1,6.5z"/>
	</g>
	<g>
		<path class="st3" d="M52.3,77.4v-4.5c-6.3-1-10.1-3-10.2-19.5V37.8c0-15.5,2.7-16.6,8.9-17.8v-4H25.2c-2,0-3.6,0.5-4.7,1.6
			c-0.9,0.9-1.4,2.1-1.4,3.4c0,1.3,0.4,2.4,1.3,3.2c0.8,0.7,1.8,1.1,2.9,1c1.5-0.1,3.2-1.2,3.5-3.1c0.1-1-0.2-1.7-0.5-2.1
			c-0.4-0.5-1-0.8-1.7-0.9c-0.8-0.1-1.6,0.3-2,0.9c-0.4,0.5-0.5,1.1-0.3,1.7c0.2,0.4,0.6,0.6,1,0.4c0.4-0.2,0.6-0.6,0.4-1
			c0-0.1,0-0.2,0.1-0.2c0.1-0.1,0.3-0.3,0.7-0.3c0.3,0,0.5,0.1,0.6,0.3c0.2,0.2,0.3,0.6,0.2,1C25,23,24,23.7,23.1,23.7
			c-0.6,0-1.2-0.2-1.7-0.6c-0.4-0.4-0.8-1-0.8-2.1c0-0.9,0.3-1.8,1-2.4c0.8-0.8,2.1-1.2,3.7-1.2c0,0,9.2,0,11.7,0v1.6h-8.1
			c-0.5,0-0.9,0.4-0.9,0.9s0.4,0.9,0.9,0.9h8.1v1.5h-7.6l0,0c-0.4,0-0.7,0.3-0.7,0.7c0,0.4,0.3,0.7,0.7,0.7h7.6V70h-13
			c-0.5,0-0.8,0.4-0.8,0.8c0,0.5,0.4,0.8,0.8,0.8h13v2H21.4c-1,0-1.9,0.8-1.9,1.9l0,1.9H52.3z"/>
		<path class="st3" d="M30.9,67.1V26.8c0-0.4-0.3-0.7-0.7-0.7c-0.4,0-0.8,0.3-0.8,0.7v40.3c0,0.4,0.3,0.7,0.8,0.7
			C30.5,67.9,30.9,67.6,30.9,67.1z"/>
		<path class="st3" d="M34.8,67V27c0-0.6-0.4-1-1-1c-0.6,0-1,0.4-1,1v40c0,0.6,0.4,1,1,1C34.3,68,34.8,67.6,34.8,67z"/>
	</g>
</g>
</svg>
