<?xml version="1.0" encoding="utf-8"?>
<!-- Generator: Adobe Illustrator 22.0.1, SVG Export Plug-In . SVG Version: 6.00 Build 0)  -->
<svg version="1.1" xmlns="http://www.w3.org/2000/svg" xmlns:xlink="http://www.w3.org/1999/xlink" x="0px" y="0px"
	 viewBox="0 0 713 69.1" style="enable-background:new 0 0 713 69.1;" xml:space="preserve">
<style type="text/css">
	.st0{fill:#FFFFFF;}
	.st1{clip-path:url(#SVGID_2_);fill:#11294B;}
	.st2{fill:#E74B26;}
</style>
<g id="Text">
	<g>
		<path class="st0" d="M96.3,9.1v27.9h-7.7V9.1H78V2h29v7.1H96.3z"/>
		<path class="st0" d="M112.8,36.9V2h26.4v6.8h-18.7v7.1h16.5v6.8h-16.5v7.3h19v6.8H112.8z"/>
		<path class="st0" d="M162.6,37.5c-10.3,0-17.9-7.9-17.9-18v-0.1c0-9.9,7.5-18.1,18.2-18.1c6.6,0,10.5,2.2,13.8,5.4l-4.9,5.6
			c-2.7-2.4-5.4-3.9-8.9-3.9c-5.9,0-10.1,4.9-10.1,10.9v0.1c0,6,4.1,11,10.1,11c4,0,6.4-1.6,9.2-4.1l4.9,4.9
			C173.4,35.1,169.4,37.5,162.6,37.5z"/>
		<path class="st0" d="M205,36.9v-14h-14.2v14h-7.7V2h7.7v13.8H205V2h7.7v34.9H205z"/>
		<path class="st0" d="M245.6,36.9l-16.9-22.2v22.2h-7.6V2h7.1l16.4,21.5V2h7.6v34.9H245.6z"/>
		<path class="st0" d="M277.5,37.5c-10.8,0-18.5-8-18.5-18v-0.1c0-9.9,7.8-18.1,18.6-18.1s18.5,8,18.5,18v0.1
			C296.1,29.4,288.3,37.5,277.5,37.5z M288.1,19.4c0-6-4.4-11-10.6-11c-6.2,0-10.5,4.9-10.5,10.9v0.1c0,6,4.4,11,10.6,11
			c6.2,0,10.5-4.9,10.5-10.9V19.4z"/>
		<path class="st0" d="M303,36.9V2h7.7v28h17.4v7H303z"/>
		<path class="st0" d="M348.8,37.5c-10.8,0-18.5-8-18.5-18v-0.1c0-9.9,7.8-18.1,18.6-18.1c10.8,0,18.5,8,18.5,18v0.1
			C367.5,29.4,359.6,37.5,348.8,37.5z M359.4,19.4c0-6-4.4-11-10.6-11c-6.2,0-10.5,4.9-10.5,10.9v0.1c0,6,4.4,11,10.6,11
			c6.2,0,10.5-4.9,10.5-10.9V19.4z"/>
		<path class="st0" d="M391.1,37.5c-10.9,0-18.4-7.6-18.4-18v-0.1c0-9.9,7.7-18.1,18.3-18.1c6.3,0,10.1,1.7,13.7,4.8L400,12
			c-2.7-2.2-5.1-3.5-9.1-3.5c-5.6,0-10,4.9-10,10.9v0.1c0,6.4,4.4,11.1,10.6,11.1c2.8,0,5.3-0.7,7.2-2.1v-5h-7.7v-6.6h15.2V32
			C402.5,35,397.5,37.5,391.1,37.5z"/>
		<path class="st0" d="M429.5,23v13.9h-7.7V23.1L408.4,2h9l8.3,14l8.5-14h8.7L429.5,23z"/>
		<path class="st0" d="M475.1,37.4c-5.3,0-10.6-1.8-14.8-5.6l4.5-5.4c3.1,2.6,6.4,4.2,10.4,4.2c3.1,0,5-1.2,5-3.3v-0.1
			c0-1.9-1.2-2.9-7-4.4c-7-1.8-11.6-3.7-11.6-10.7V12c0-6.3,5.1-10.5,12.2-10.5c5.1,0,9.4,1.6,13,4.4l-4,5.8
			c-3.1-2.1-6.1-3.4-9.1-3.4s-4.5,1.3-4.5,3v0.1c0,2.3,1.5,3,7.5,4.6c7.1,1.8,11.1,4.4,11.1,10.5v0.1
			C488,33.5,482.7,37.4,475.1,37.4z"/>
		<path class="st0" d="M494.6,36.9V2H521v6.8h-18.7v7.1h16.5v6.8h-16.5v7.3h19v6.8H494.6z"/>
		<path class="st0" d="M549.3,36.9l-7.5-11.2h-6v11.2h-7.7V2h16c8.2,0,13.2,4.3,13.2,11.5v0.1c0,5.6-3,9.2-7.5,10.8l8.5,12.5H549.3z
			 M549.5,13.9c0-3.3-2.3-5-6-5h-7.6v10h7.8C547.3,18.9,549.5,16.9,549.5,13.9L549.5,13.9z"/>
		<path class="st0" d="M581.1,37.2h-6.8L560.2,2h8.5l9.1,24.6L587,2h8.3L581.1,37.2z"/>
		<path class="st0" d="M601,36.9V2h7.7v34.9H601z"/>
		<path class="st0" d="M633.8,37.5c-10.3,0-17.9-7.9-17.9-18v-0.1c0-9.9,7.5-18.1,18.2-18.1c6.6,0,10.5,2.2,13.8,5.4l-4.9,5.6
			c-2.7-2.4-5.4-3.9-8.9-3.9c-5.9,0-10.1,4.9-10.1,10.9v0.1c0,6,4.1,11,10.1,11c4,0,6.4-1.6,9.2-4.1l4.9,4.9
			C644.5,35.1,640.5,37.5,633.8,37.5z"/>
		<path class="st0" d="M654.3,36.9V2h26.4v6.8h-18.7v7.1h16.5v6.8h-16.5v7.3h19v6.8H654.3z"/>
		<path class="st0" d="M700.2,37.4c-5.3,0-10.6-1.8-14.8-5.6l4.5-5.4c3.1,2.6,6.4,4.2,10.4,4.2c3.1,0,5-1.2,5-3.3v-0.1
			c0-1.9-1.2-2.9-7-4.4c-7-1.8-11.6-3.7-11.6-10.7V12c0-6.3,5.1-10.5,12.2-10.5c5.1,0,9.4,1.6,13,4.4l-4,5.8
			c-3.1-2.1-6.1-3.4-9.1-3.4s-4.5,1.3-4.5,3v0.1c0,2.3,1.5,3,7.5,4.6c7.1,1.8,11.1,4.4,11.1,10.5v0.1
			C713,33.5,707.7,37.4,700.2,37.4z"/>
		<path class="st0" d="M95,66.9h-2.1l-2-4.6h-9.5l-2.1,4.6h-2l8-17.6h1.8L95,66.9z M86.1,51.6l-4,8.9h8L86.1,51.6z"/>
		<path class="st0" d="M102.8,66.9h-2V51.2H95v-1.8h13.7v1.8h-5.9V66.9z"/>
		<path class="st0" d="M122,49.4v17.5h-2V49.4H122z"/>
		<path class="st0" d="M127.1,49.4h2v15.7h9.8v1.8h-11.8V49.4z"/>
		<path class="st0" d="M142.6,49.4h2v15.7h9.8v1.8h-11.8V49.4z"/>
		<path class="st0" d="M160.2,49.4v17.5h-2V49.4H160.2z"/>
		<path class="st0" d="M178.2,49.4h1.9v17.5h-1.6l-11.3-14.3v14.3h-1.9V49.4h1.8l11,14V49.4z"/>
		<path class="st0" d="M193.2,67.2c-5.3,0-8.9-4.2-8.9-9c0-4.8,3.6-9.1,8.9-9.1c5.3,0,8.9,4.2,8.9,9S198.5,67.2,193.2,67.2z
			 M193.2,50.9c-4,0-6.8,3.2-6.8,7.2s2.9,7.2,6.9,7.2s6.8-3.2,6.8-7.2S197.2,50.9,193.2,50.9z"/>
		<path class="st0" d="M208.4,49.4v17.5h-2V49.4H208.4z"/>
		<path class="st0" d="M219.8,57.2c3.9,0.8,5.7,2.3,5.7,5c0,3-2.5,5-6,5c-2.8,0-5-0.9-7.1-2.8l1.2-1.4c1.8,1.6,3.6,2.5,6,2.5
			c2.3,0,3.9-1.2,3.9-3c0-1.6-0.9-2.6-4.5-3.3c-4-0.9-5.9-2.2-5.9-5.1c0-2.8,2.4-4.8,5.7-4.8c2.5,0,4.4,0.7,6.1,2.1l-1.1,1.5
			c-1.6-1.3-3.2-1.9-5-1.9c-2.3,0-3.7,1.2-3.7,2.8C215,55.4,215.9,56.4,219.8,57.2z"/>
	</g>
</g>
<g id="Block_I">
	<g>
		<g>
			<defs>
				<rect id="SVGID_1_" y="0" width="47.8" height="69.1"/>
			</defs>
			<clipPath id="SVGID_2_">
				<use xlink:href="#SVGID_1_"  style="overflow:visible;"/>
			</clipPath>
			<path class="st1" d="M37.2,53.2h8v13.3H2.7V53.2h8c1.5,0,2.7-1.2,2.7-2.7V18.6c0-1.5-1.2-2.7-2.7-2.7h-8V2.7h42.5v13.3h-8
				c-1.5,0-2.7,1.2-2.7,2.7v31.9C34.6,52,35.7,53.2,37.2,53.2L37.2,53.2z M47.8,18.6V0H0v18.6h10.6v31.9H0v18.6h47.8V50.5H37.2V18.6
				H47.8L47.8,18.6z"/>
		</g>
		<path class="st2" d="M37.2,15.9h8V2.7H2.7v13.3h8c1.5,0,2.7,1.2,2.7,2.7v31.9c0,1.5-1.2,2.7-2.7,2.7h-8v13.3h42.5V53.2h-8
			c-1.5,0-2.7-1.2-2.7-2.7V18.6C34.6,17.1,35.7,15.9,37.2,15.9L37.2,15.9z"/>
	</g>
</g>
</svg>
