<?xml version="1.0" encoding="utf-8"?>
<!-- Generator: Adobe Illustrator 20.0.0, SVG Export Plug-In . SVG Version: 6.00 Build 0)  -->
<svg version="1.1" xmlns="http://www.w3.org/2000/svg" xmlns:xlink="http://www.w3.org/1999/xlink" x="0px" y="0px"
	 viewBox="0 0 736.9 94.3" style="enable-background:new 0 0 736.9 94.3;" xml:space="preserve">
<style type="text/css">
	.st0{fill: none; stroke:#ffffff;stroke-width:0.5;}
	.st1{fill:#ffffff;}
</style>
<g id="Text">
	<g>
		<path class="st1" d="M120.2,17.4v27.9h-7.7V17.4h-10.6v-7.1h29v7.1H120.2z"/>
		<path class="st1" d="M136.7,45.2V10.3h26.4v6.8h-18.7v7.1h16.5v6.8h-16.5v7.3h19v6.8H136.7z"/>
		<path class="st1" d="M186.6,45.8c-10.3,0-17.9-7.9-17.9-18v-0.1c0-9.9,7.5-18.1,18.2-18.1c6.6,0,10.5,2.2,13.8,5.4l-4.9,5.6
			c-2.7-2.4-5.4-3.9-8.9-3.9c-5.9,0-10.1,4.9-10.1,10.9v0.1c0,6,4.1,11,10.1,11c4,0,6.4-1.6,9.2-4.1l4.9,4.9
			C197.3,43.4,193.3,45.8,186.6,45.8z"/>
		<path class="st1" d="M228.9,45.2v-14h-14.2v14H207V10.3h7.7v13.8h14.2V10.3h7.7v34.9H228.9z"/>
		<path class="st1" d="M269.5,45.2L252.6,23v22.2H245V10.3h7.1l16.4,21.5V10.3h7.6v34.9H269.5z"/>
		<path class="st1" d="M301.4,45.8c-10.8,0-18.5-8-18.5-18v-0.1c0-9.9,7.8-18.1,18.6-18.1s18.5,8,18.5,18v0.1C320,37.7,312.2,45.8,301.4,45.8z
			 M312,27.8c0-6-4.4-11-10.6-11c-6.2,0-10.5,4.9-10.5,10.9v0.1c0,6,4.4,11,10.6,11S312,33.8,312,27.9V27.8z"/>
		<path class="st1" d="M326.9,45.2V10.3h7.7v28H352v7H326.9z"/>
		<path class="st1" d="M372.8,45.8c-10.8,0-18.5-8-18.5-18v-0.1c0-9.9,7.8-18.1,18.6-18.1c10.8,0,18.5,8,18.5,18v0.1
			C391.4,37.7,383.5,45.8,372.8,45.8z M383.3,27.8c0-6-4.4-11-10.6-11c-6.2,0-10.5,4.9-10.5,10.9v0.1c0,6,4.4,11,10.6,11
			c6.2,0,10.5-4.9,10.5-10.9V27.8z"/>
		<path class="st1" d="M415.1,45.8c-10.9,0-18.4-7.6-18.4-18v-0.1c0-9.9,7.7-18.1,18.3-18.1c6.3,0,10.1,1.7,13.7,4.8l-4.8,5.8
			c-2.7-2.2-5.1-3.5-9.1-3.5c-5.6,0-10,4.9-10,10.9v0.1c0,6.4,4.4,11.1,10.6,11.1c2.8,0,5.3-0.7,7.2-2.1v-5h-7.7v-6.6H430v15.2
			C426.4,43.3,421.4,45.8,415.1,45.8z"/>
		<path class="st1" d="M453.4,31.3v13.9h-7.7V31.5l-13.4-21.2h9l8.3,14l8.5-14h8.7L453.4,31.3z"/>
		<path class="st1" d="M499,45.7c-5.3,0-10.6-1.8-14.8-5.6l4.5-5.4c3.1,2.6,6.4,4.2,10.4,4.2c3.1,0,5-1.2,5-3.3v-0.1c0-1.9-1.2-2.9-7-4.4
			c-7-1.8-11.6-3.7-11.6-10.7v-0.1c0-6.3,5.1-10.5,12.2-10.5c5.1,0,9.4,1.6,13,4.4l-4,5.8c-3.1-2.1-6.1-3.4-9.1-3.4s-4.5,1.3-4.5,3
			v0.1c0,2.3,1.5,3,7.5,4.6c7.1,1.8,11.1,4.4,11.1,10.5v0.1C511.9,41.8,506.6,45.7,499,45.7z"/>
		<path class="st1" d="M518.6,45.2V10.3h26.4v6.8h-18.7v7.1h16.5v6.8h-16.5v7.3h19v6.8H518.6z"/>
		<path class="st1" d="M573.2,45.2L565.8,34h-6v11.2H552V10.3h16c8.2,0,13.2,4.3,13.2,11.5v0.1c0,5.6-3,9.2-7.5,10.8l8.5,12.5H573.2z
			 M573.4,22.2c0-3.3-2.3-5-6-5h-7.6v10h7.8C571.2,27.3,573.4,25.3,573.4,22.2L573.4,22.2z"/>
		<path class="st1" d="M605,45.5h-6.8l-14.1-35.2h8.5l9.1,24.6l9.1-24.6h8.3L605,45.5z"/>
		<path class="st1" d="M624.9,45.2V10.3h7.7v34.9H624.9z"/>
		<path class="st1" d="M657.7,45.8c-10.3,0-17.9-7.9-17.9-18v-0.1c0-9.9,7.5-18.1,18.2-18.1c6.6,0,10.5,2.2,13.8,5.4l-4.9,5.6
			c-2.7-2.4-5.4-3.9-8.9-3.9c-5.9,0-10.1,4.9-10.1,10.9v0.1c0,6,4.1,11,10.1,11c4,0,6.4-1.6,9.2-4.1l4.9,4.9
			C668.5,43.4,664.5,45.8,657.7,45.8z"/>
		<path class="st1" d="M678.2,45.2V10.3h26.4v6.8h-18.7v7.1h16.5v6.8h-16.5v7.3h19v6.8H678.2z"/>
		<path class="st1" d="M724.1,45.7c-5.3,0-10.6-1.8-14.8-5.6l4.5-5.4c3.1,2.6,6.4,4.2,10.4,4.2c3.1,0,5-1.2,5-3.3v-0.1c0-1.9-1.2-2.9-7-4.4
			c-7-1.8-11.6-3.7-11.6-10.7v-0.1c0-6.3,5.1-10.5,12.2-10.5c5.1,0,9.4,1.6,13,4.4l-4,5.8c-3.1-2.1-6.1-3.4-9.1-3.4s-4.5,1.3-4.5,3
			v0.1c0,2.3,1.5,3,7.5,4.6c7.1,1.8,11.1,4.4,11.1,10.5v0.1C736.9,41.8,731.6,45.7,724.1,45.7z"/>
		<path class="st1" d="M118.9,75.2h-2.1l-2-4.6h-9.5l-2.1,4.6h-2l8-17.6h1.8L118.9,75.2z M110,59.9l-4,8.9h8L110,59.9z"/>
		<path class="st1" d="M126.7,75.2h-2V59.5h-5.9v-1.8h13.7v1.8h-5.9V75.2z"/>
		<path class="st1" d="M145.9,57.7v17.5h-2V57.7H145.9z"/>
		<path class="st1" d="M151.1,57.7h2v15.7h9.8v1.8h-11.8V57.7z"/>
		<path class="st1" d="M166.5,57.7h2v15.7h9.8v1.8h-11.8V57.7z"/>
		<path class="st1" d="M184.1,57.7v17.5h-2V57.7H184.1z"/>
		<path class="st1" d="M202.1,57.7h1.9v17.5h-1.6l-11.3-14.3v14.3h-1.9V57.7h1.8l11,14V57.7z"/>
		<path class="st1" d="M217.1,75.5c-5.3,0-8.9-4.2-8.9-9c0-4.8,3.6-9.1,8.9-9.1c5.3,0,8.9,4.2,8.9,9S222.4,75.5,217.1,75.5z M217.1,59.2
			c-4,0-6.8,3.2-6.8,7.2c0,4,2.9,7.2,6.9,7.2c4,0,6.8-3.2,6.8-7.2C224,62.5,221.1,59.2,217.1,59.2z"/>
		<path class="st1" d="M232.3,57.7v17.5h-2V57.7H232.3z"/>
		<path class="st1" d="M243.7,65.5c3.9,0.8,5.7,2.3,5.7,5c0,3-2.5,5-6,5c-2.8,0-5-0.9-7.1-2.8l1.2-1.4c1.8,1.6,3.6,2.5,6,2.5
			c2.3,0,3.9-1.2,3.9-3c0-1.6-0.9-2.6-4.5-3.3c-4-0.9-5.9-2.2-5.9-5.1c0-2.8,2.4-4.8,5.7-4.8c2.5,0,4.4,0.7,6.1,2.1l-1.1,1.5
			c-1.6-1.3-3.2-1.9-5-1.9c-2.3,0-3.7,1.2-3.7,2.8C239,63.8,239.9,64.7,243.7,65.5z"/>
	</g>
</g>
<g id="Layer_3">
	<g id="outer_border">
		<path class="st0" d="M0.2,94.1V0.2h72.3v90.5v3.4H0.2L0.2,94.1z M7,87.3h58.8V7H7V87.3L7,87.3z"/>
	</g>
	<g id="inner_border">
		<path class="st1" d="M4.5,89.7V4.6h63.8v84.1v1H4.5L4.5,89.7z M6.6,87.6h59.6l0-80.9H6.6V87.6L6.6,87.6z"/>
	</g>
	<g id="I">
		<path class="st1" d="M53.3,78.3v-4.6c-6.4-1-10.3-3-10.3-19.7V38.1c0-15.7,2.8-16.8,9-18V16H25.8c-2,0-3.7,0.5-4.8,1.6
			c-0.9,0.9-1.4,2.1-1.4,3.5c0,1.3,0.4,2.4,1.3,3.3c0.8,0.7,1.9,1.1,2.9,1.1c1.6-0.1,3.3-1.2,3.5-3.2c0.1-1.1-0.2-1.7-0.6-2.1
			c-0.4-0.5-1-0.8-1.7-0.9c-0.8-0.1-1.6,0.3-2,0.9c-0.4,0.5-0.5,1.2-0.3,1.7c0.2,0.4,0.6,0.6,1,0.4c0.4-0.2,0.6-0.6,0.4-1
			c0-0.1,0-0.2,0.1-0.2c0.1-0.1,0.3-0.3,0.7-0.3c0.3,0,0.5,0.1,0.6,0.3c0.2,0.2,0.3,0.6,0.2,1c-0.1,1.1-1.2,1.8-2.1,1.9
			c-0.6,0-1.3-0.2-1.7-0.6c-0.4-0.4-0.8-1-0.8-2.1c0-0.9,0.4-1.8,1-2.4c0.8-0.8,2.1-1.2,3.7-1.2c0,0,9.3,0,11.9,0v1.7h-8.2
			c-0.5,0-0.9,0.4-0.9,0.9c0,0.5,0.4,0.9,0.9,0.9h8.2v1.5h-7.7l0,0c-0.4,0-0.8,0.3-0.8,0.8c0,0.4,0.3,0.8,0.8,0.8h7.7v46.8H24.5
			c-0.5,0-0.8,0.4-0.8,0.8s0.4,0.8,0.8,0.8h13.2v2H21.9c-1,0-1.9,0.8-1.9,1.9l0,1.9H53.3z"/>
		<path class="st1" d="M31.5,67.9V27c0-0.4-0.3-0.8-0.8-0.8c-0.4,0-0.8,0.3-0.8,0.8v40.9c0,0.4,0.3,0.8,0.8,0.8
			C31.2,68.7,31.5,68.3,31.5,67.9z"/>
		<path class="st1" d="M35.5,67.8V27.2c0-0.6-0.5-1-1-1c-0.6,0-1,0.5-1,1v40.6c0,0.6,0.5,1,1,1C35,68.8,35.5,68.4,35.5,67.8z"/>
	</g>
</g>
</svg>
